<svg width="100" height="100" viewBox="0 0 100 100" fill="none" xmlns="http://www.w3.org/2000/svg">
<path d="M25 45.8333C25 55.025 32.475 62.5 41.6667 62.5C49.0042 62.5 55.175 57.7041 57.3958 51.1083L66.6625 45.7291L66.6667 45.8333C66.6667 59.6416 55.475 70.8333 41.6667 70.8333C27.8583 70.8333 16.6667 59.6416 16.6667 45.8333C16.6667 32.025 27.8583 20.8333 41.6667 20.8333C46.1833 20.8333 50.4083 22.05 54.0625 24.1416L44.8542 29.4875C43.8208 29.2875 42.7583 29.1666 41.6667 29.1666C32.475 29.1666 25 36.6416 25 45.8333ZM41.6667 37.5C37.0625 37.5 33.3333 41.2333 33.3333 45.8333C33.3333 50.4333 37.0625 54.1666 41.6667 54.1666C46.2708 54.1666 50 50.4333 50 45.8333L49.9917 45.7708L63.9917 37.6458C68.0583 35.2916 75.2583 36.2458 79.4542 38.3083L100 26.3791L86.8417 19.8416L87.5458 4.70829L66.9417 16.6666C66.65 21.3375 63.8833 28.0666 59.8375 30.4208L45.7417 38.6041C44.5333 37.925 43.1542 37.5 41.6667 37.5ZM83.1542 49.4083C81.9 47.3958 78.7125 44.9875 74.9792 45.4625L75 45.8333C75 64.2124 60.0458 79.1666 41.6667 79.1666C23.2875 79.1666 8.33333 64.2124 8.33333 45.8333C8.33333 27.4541 23.2875 12.5 41.6667 12.5C47.8125 12.5 53.5542 14.2 58.5042 17.1125C59.8958 14.6708 60.2875 10.6791 59.1125 8.02913C53.8 5.57496 47.9042 4.16663 41.6667 4.16663C18.6542 4.16663 0 22.8208 0 45.8333C0 58.1583 5.37917 69.1958 13.8833 76.8249L8.4375 93.7083C7.925 95.3041 9.89583 96.5374 11.1042 95.3708L23.6125 83.3374C29.0792 85.9791 35.1875 87.4999 41.6667 87.4999C48.15 87.4999 54.2625 85.9916 59.7292 83.3499L72.2292 95.3749C73.4375 96.5416 75.4083 95.3041 74.8958 93.7124L69.4542 76.8374C77.1167 69.9541 82.225 60.2833 83.1542 49.4083Z" fill="#1E1E1E"/>
</svg>
