<svg width="100" height="100" viewBox="0 0 100 100" fill="none" xmlns="http://www.w3.org/2000/svg">
<g clip-path="url(#clip0_97_346)">
<path d="M50 8.33333C64.3875 8.33333 74.5458 19.9875 73.1958 36.5833C80.4667 36.3917 91.6667 39.7125 91.6667 52.0833C91.6667 60.125 85.125 66.6667 77.0833 66.6667H22.9167C14.875 66.6667 8.33333 60.125 8.33333 52.0833C8.33333 40.4292 18.6625 36.1125 26.8042 36.5833C26.1083 19.0083 36.0042 8.33333 50 8.33333ZM50 0C33.3083 0 19.7208 13.0875 18.8375 29.55C8.12917 31.4792 0 40.825 0 52.0833C0 64.7375 10.2625 75 22.9167 75H77.0833C89.7375 75 100 64.7375 100 52.0833C100 40.825 91.8708 31.4792 81.1625 29.55C80.2792 13.0875 66.6917 0 50 0ZM33.3333 100V91.6667H45.8333V83.3333H54.1667V91.6667H66.6667V100H33.3333ZM70.8333 91.6667V100H83.3333V91.6667H70.8333ZM29.1667 91.6667H16.6667V100H29.1667V91.6667Z" fill="#F2C964"/>
</g>
<defs>
<clipPath id="clip0_97_346">
<rect width="100" height="100" fill="white"/>
</clipPath>
</defs>
</svg>
