<svg width="100" height="100" viewBox="0 0 100 100" fill="none" xmlns="http://www.w3.org/2000/svg">
<g clip-path="url(#clip0_97_353)">
<path d="M57.0147 19.0064C56.0644 19.0513 55.1543 19.3986 54.4163 19.9986C53.6791 20.5986 53.1535 21.4195 52.9163 22.3405L38.4692 75.6829C38.0537 77.2217 38.4909 78.8642 39.6149 79.9938C40.7397 81.1232 42.3814 81.5666 43.921 81.1573C45.4613 80.748 46.6667 79.548 47.0822 78.0094L61.5294 24.6669V24.6677C61.9239 23.2856 61.6263 21.798 60.7302 20.674C59.8341 19.5499 58.4496 18.929 57.0146 19.0065L57.0147 19.0064ZM31.1075 24.5629C30.1052 24.5799 29.1386 24.935 28.3642 25.5698L1.69299 46.6846L1.69221 46.6853C0.624016 47.528 0 48.8141 0 50.1752C0 51.5364 0.624016 52.8225 1.69221 53.6659L28.3634 74.7806H28.3642C29.282 75.5837 30.489 75.9752 31.7037 75.862C32.9184 75.7488 34.033 75.1418 34.7865 74.1829C35.5408 73.224 35.8671 71.9969 35.6904 70.7907C35.5137 69.5837 34.8486 68.5024 33.8509 67.8001L11.5892 50.1925L33.8509 32.551C34.8517 31.7921 35.485 30.6448 35.5935 29.3937C35.702 28.1426 35.2764 26.9038 34.4222 25.9836C33.5672 25.0627 32.3633 24.5472 31.1076 24.5635L31.1075 24.5629ZM68.7886 24.5629C67.5444 24.5761 66.363 25.1102 65.5313 26.0342C64.6987 26.959 64.2925 28.1899 64.4096 29.428C64.5274 30.6668 65.1576 31.7993 66.1491 32.5504L88.4108 50.1919L66.1491 67.7995C65.1515 68.5018 64.4863 69.5831 64.3096 70.79C64.1329 71.9962 64.4592 73.2234 65.2135 74.1823C65.9669 75.1412 67.0817 75.7481 68.2963 75.8613C69.511 75.9745 70.718 75.583 71.6358 74.7799L98.307 53.6652H98.3078C99.376 52.8218 100 51.5359 100 50.1746C100 48.8132 99.376 47.5273 98.3078 46.6847L71.6366 25.57L71.6358 25.5692C70.8335 24.9118 69.8257 24.5552 68.7885 24.5622L68.7886 24.5629Z" fill="#1E1E1E"/>
</g>
<defs>
<clipPath id="clip0_97_353">
<rect width="100" height="100" fill="white"/>
</clipPath>
</defs>
</svg>
